<?xml version="1.0" encoding="UTF-8" standalone="no"?>
<!DOCTYPE svg PUBLIC "-//W3C//DTD SVG 1.1//EN"
 "http://www.w3.org/Graphics/SVG/1.1/DTD/svg11.dtd">
<!-- Generated by graphviz version 2.50.0 (20211204.2007)
 -->
<!-- Pages: 1 -->
<svg width="851pt" height="276pt"
 viewBox="0.00 0.00 851.10 276.16" xmlns="http://www.w3.org/2000/svg" xmlns:xlink="http://www.w3.org/1999/xlink">
<g id="graph0" class="graph" transform="scale(1 1) rotate(0) translate(4 272.16)">
<!-- key -->
<g id="node1" class="node">
<title>key</title>
<ellipse fill="pink" stroke="black" cx="237.66" cy="-108.57" rx="21.43" ry="21.43"/>
<text text-anchor="middle" x="237.66" y="-106.37" font-family="Helvetica,sans-Serif" font-size="9.00">key</text>
</g>
<!-- 1610 -->
<g id="node8" class="node">
<title>1610</title>
<ellipse fill="white" stroke="black" cx="365" cy="-111.57" rx="26.74" ry="26.74"/>
<text text-anchor="middle" x="365" y="-109.37" font-family="Helvetica,sans-Serif" font-size="9.00">1610</text>
</g>
<!-- key&#45;&gt;1610 -->
<g id="edge8" class="edge">
<title>key&#45;&gt;1610</title>
<path fill="none" stroke="#0000ff" stroke-width="5" stroke-opacity="0.996078" d="M259.07,-109.06C277.64,-109.5 305.46,-110.17 327.8,-110.7"/>
<polygon fill="#0000ff" fill-opacity="0.996078" stroke="#0000ff" stroke-width="5" stroke-opacity="0.996078" points="327.83,-115.08 337.93,-110.94 328.04,-106.33 327.83,-115.08"/>
<text text-anchor="middle" x="306.63" y="-113.37" font-family="Helvetica,sans-Serif" font-size="9.00">0.646</text>
</g>
<!-- game_elapsed -->
<g id="node2" class="node">
<title>game_elapsed</title>
<ellipse fill="pink" stroke="black" cx="68.59" cy="-56.57" rx="56.64" ry="56.64"/>
<text text-anchor="middle" x="68.59" y="-54.37" font-family="Helvetica,sans-Serif" font-size="9.00">game_elapsed</text>
</g>
<!-- keydown -->
<g id="node4" class="node">
<title>keydown</title>
<ellipse fill="lightblue" stroke="black" cx="237.66" cy="-185.57" rx="37.45" ry="37.45"/>
<text text-anchor="middle" x="237.66" y="-183.37" font-family="Helvetica,sans-Serif" font-size="9.00">keydown</text>
</g>
<!-- game_elapsed&#45;&gt;keydown -->
<g id="edge1" class="edge">
<title>game_elapsed&#45;&gt;keydown</title>
<path fill="none" stroke="#0000ff" stroke-width="5" stroke-opacity="0.337255" d="M113.92,-90.8C140.5,-111.32 173.92,-137.13 199.17,-156.63"/>
<polygon fill="#0000ff" fill-opacity="0.337255" stroke="#0000ff" stroke-width="5" stroke-opacity="0.337255" points="196.81,-160.33 207.4,-162.98 202.16,-153.41 196.81,-160.33"/>
<text text-anchor="middle" x="168.68" y="-143.37" font-family="Helvetica,sans-Serif" font-size="9.00">2.549</text>
</g>
<!-- 1411 -->
<g id="node6" class="node">
<title>1411</title>
<ellipse fill="white" stroke="black" cx="478.74" cy="-72.57" rx="26.74" ry="26.74"/>
<text text-anchor="middle" x="478.74" y="-70.37" font-family="Helvetica,sans-Serif" font-size="9.00">1411</text>
</g>
<!-- game_elapsed&#45;&gt;1411 -->
<g id="edge5" class="edge">
<title>game_elapsed&#45;&gt;1411</title>
<path fill="none" stroke="#0000ff" stroke-width="5" stroke-opacity="0.976471" d="M125.49,-58.76C210.42,-62.09 369.65,-68.33 441.24,-71.14"/>
<polygon fill="#0000ff" fill-opacity="0.976471" stroke="#0000ff" stroke-width="5" stroke-opacity="0.976471" points="441.39,-75.52 451.55,-71.54 441.73,-66.78 441.39,-75.52"/>
<text text-anchor="middle" x="306.63" y="-69.37" font-family="Helvetica,sans-Serif" font-size="9.00">0.287</text>
</g>
<!-- snowman_elapsed -->
<g id="node3" class="node">
<title>snowman_elapsed</title>
<ellipse fill="pink" stroke="black" cx="68.59" cy="-199.57" rx="68.68" ry="68.68"/>
<text text-anchor="middle" x="68.59" y="-197.37" font-family="Helvetica,sans-Serif" font-size="9.00">snowman_elapsed</text>
</g>
<!-- snowman_elapsed&#45;&gt;keydown -->
<g id="edge2" class="edge">
<title>snowman_elapsed&#45;&gt;keydown</title>
<path fill="none" stroke="#ff0000" stroke-width="5" stroke-opacity="0.619608" d="M137.06,-193.91C154.74,-192.43 173.42,-190.87 189.76,-189.5"/>
<polygon fill="#ff0000" fill-opacity="0.619608" stroke="#ff0000" stroke-width="5" stroke-opacity="0.619608" points="190.53,-193.82 200.13,-188.63 189.8,-185.1 190.53,-193.82"/>
<text text-anchor="middle" x="168.68" y="-195.37" font-family="Helvetica,sans-Serif" font-size="9.00">&#45;5.548</text>
</g>
<!-- keydown&#45;&gt;1610 -->
<g id="edge7" class="edge">
<title>keydown&#45;&gt;1610</title>
<path fill="none" stroke="#ff0000" stroke-width="5" stroke-opacity="0.968627" d="M270.29,-166.9C289.44,-155.58 313.78,-141.22 332.85,-129.96"/>
<polygon fill="#ff0000" fill-opacity="0.968627" stroke="#ff0000" stroke-width="5" stroke-opacity="0.968627" points="335.09,-133.72 341.48,-124.87 330.64,-126.18 335.09,-133.72"/>
<text text-anchor="middle" x="306.63" y="-156.37" font-family="Helvetica,sans-Serif" font-size="9.00">&#45;0.179</text>
</g>
<!-- keyup -->
<g id="node5" class="node">
<title>keyup</title>
<ellipse fill="lightblue" stroke="black" cx="814.11" cy="-72.57" rx="28.98" ry="28.98"/>
<text text-anchor="middle" x="814.11" y="-70.37" font-family="Helvetica,sans-Serif" font-size="9.00">keyup</text>
</g>
<!-- 689 -->
<g id="node9" class="node">
<title>689</title>
<ellipse fill="white" stroke="black" cx="591.24" cy="-72.57" rx="22.76" ry="22.76"/>
<text text-anchor="middle" x="591.24" y="-70.37" font-family="Helvetica,sans-Serif" font-size="9.00">689</text>
</g>
<!-- 1411&#45;&gt;689 -->
<g id="edge6" class="edge">
<title>1411&#45;&gt;689</title>
<path fill="none" stroke="#ff0000" stroke-width="5" stroke-opacity="0.992157" d="M505.65,-72.57C521.35,-72.57 541.5,-72.57 558.19,-72.57"/>
<polygon fill="#ff0000" fill-opacity="0.992157" stroke="#ff0000" stroke-width="5" stroke-opacity="0.992157" points="558.58,-76.94 568.58,-72.57 558.58,-68.19 558.58,-76.94"/>
<text text-anchor="middle" x="537.11" y="-75.37" font-family="Helvetica,sans-Serif" font-size="9.00">&#45;0.543</text>
</g>
<!-- 836 -->
<g id="node7" class="node">
<title>836</title>
<ellipse fill="white" stroke="black" cx="699.49" cy="-72.57" rx="22.76" ry="22.76"/>
<text text-anchor="middle" x="699.49" y="-70.37" font-family="Helvetica,sans-Serif" font-size="9.00">836</text>
</g>
<!-- 836&#45;&gt;keyup -->
<g id="edge4" class="edge">
<title>836&#45;&gt;keyup</title>
<path fill="none" stroke="#ff0000" stroke-width="5" stroke-opacity="0.341176" d="M722.21,-72.57C737.03,-72.57 757.07,-72.57 774.56,-72.57"/>
<polygon fill="#ff0000" fill-opacity="0.341176" stroke="#ff0000" stroke-width="5" stroke-opacity="0.341176" points="775.06,-76.94 785.06,-72.57 775.06,-68.19 775.06,-76.94"/>
<text text-anchor="middle" x="753.62" y="-75.37" font-family="Helvetica,sans-Serif" font-size="9.00">&#45;2.585</text>
</g>
<!-- 1610&#45;&gt;1411 -->
<g id="edge9" class="edge">
<title>1610&#45;&gt;1411</title>
<path fill="none" stroke="#0000ff" stroke-width="5" stroke-opacity="0.992157" d="M390.52,-103.01C405.99,-97.61 426.2,-90.56 443.26,-84.6"/>
<polygon fill="#0000ff" fill-opacity="0.992157" stroke="#0000ff" stroke-width="5" stroke-opacity="0.992157" points="444.89,-88.67 452.89,-81.24 442.01,-80.41 444.89,-88.67"/>
<text text-anchor="middle" x="421.87" y="-98.37" font-family="Helvetica,sans-Serif" font-size="9.00">0.585</text>
</g>
<!-- 689&#45;&gt;836 -->
<g id="edge3" class="edge">
<title>689&#45;&gt;836</title>
<path fill="none" stroke="#ff0000" stroke-width="5" d="M614,-72.57C629.18,-72.57 649.69,-72.57 666.7,-72.57"/>
<polygon fill="#ff0000" stroke="#ff0000" stroke-width="5" points="666.77,-76.94 676.76,-72.57 666.76,-68.19 666.77,-76.94"/>
<text text-anchor="middle" x="645.37" y="-75.37" font-family="Helvetica,sans-Serif" font-size="9.00">&#45;0.737</text>
</g>
</g>
</svg>
